<svg xmlns="http://www.w3.org/2000/svg" width="259" height="46" viewBox="0 0 259 46">
  <defs>
    <style>
      .cls-1 {
        fill: #fff;
        fill-rule: evenodd;
      }
    </style>
  </defs>
  <g id="ICO_NX_WHITE">
    <path id="logo" class="cls-1" d="M3863.07,5265.95h11.15v-32.19h-11.15v32.19Zm-145.52,0h16.33l-16.33-21.47v21.47Zm15.15-40.61H3717l15.7,20.65v-20.65Zm117.85,0h-19.09l9.55,17.93Zm-12.56,31.85-7.33-12.42v21.18h20.58v-21.3l-7.39,12.54h-5.86Zm30.67-37.19a5.56,5.56,0,0,0-5.58,5.33c0,0.07-.01.14-0.01,0.21a5.585,5.585,0,0,0,11.17,0,1.477,1.477,0,0,0-.01-0.21,5.558,5.558,0,0,0-5.57-5.33m32.42,5.34h-15.7l15.7,20.65v-20.65Zm-15.15,40.61h16.33l-16.33-21.47v21.47ZM3687,5266h18.83v-40.62H3687V5266Zm110.73-30.8h9.99v30.75h11.09V5235.2h8.8v-9.86h-23.34Zm-25.81-.29-6.3-9.57h-21.21v40.61h20.6l6.36-9.58h-16.04v-6.43h13.3v-8.88h-13.3v-6.15h16.59Zm5.56,31.04h14.63l-7.29-11.65Zm14.33-40.61h-13.43l6.69,10.78Zm143.76,20.37c0,3.62-1.12,6.42-3.35,8.38a12.911,12.911,0,0,1-8.73,2.93v0.01h0v-22.77h0a12.782,12.782,0,0,1,8.73,2.97c2.23,1.98,3.35,4.77,3.35,8.35v0.13Zm8.91-8.39a17.736,17.736,0,0,0-4.4-6.36,20.251,20.251,0,0,0-7.08-4.14,28.723,28.723,0,0,0-9.58-1.48h-10.64v40.61h10.41a28.118,28.118,0,0,0,9.63-1.54,20.748,20.748,0,0,0,7.18-4.26,18.436,18.436,0,0,0,4.46-6.47,21.124,21.124,0,0,0,1.54-8.15v-0.12a21.041,21.041,0,0,0-1.52-8.09" transform="translate(-3687 -5220)"/>
  </g>
</svg>