<?xml version="1.0" standalone="no"?>
<!DOCTYPE svg PUBLIC "-//W3C//DTD SVG 20010904//EN"
 "http://www.w3.org/TR/2001/REC-SVG-20010904/DTD/svg10.dtd">
<svg version="1.0" xmlns="http://www.w3.org/2000/svg"
 width="512.000000pt" height="512.000000pt" viewBox="0 0 512.000000 512.000000"
 preserveAspectRatio="xMidYMid meet">
<metadata>
Created by potrace 1.15, written by Peter Selinger 2001-2017
</metadata>
<g transform="translate(0.000000,512.000000) scale(0.100000,-0.100000)"
fill="#000000" stroke="none">
<path d="M430 4801 c-163 -20 -252 -84 -292 -212 l-23 -74 0 -1995 0 -1995 22
-70 c38 -119 109 -180 238 -204 81 -15 1469 -15 1550 0 56 10 131 43 165 71
29 24 58 83 79 158 21 74 21 82 21 2037 0 1751 -2 1969 -16 2030 -30 132 -81
190 -204 234 l-65 23 -710 2 c-390 1 -735 -1 -765 -5z m1500 -2251 l0 -2060
-810 0 -810 0 0 2060 0 2060 810 0 810 0 0 -2060z"/>
<path d="M3355 4804 c-97 -10 -182 -43 -227 -91 -37 -38 -68 -116 -68 -167 0
-65 45 -182 92 -241 23 -28 136 -175 153 -199 11 -15 49 -65 85 -110 36 -46
112 -145 170 -220 58 -76 141 -184 185 -240 44 -57 89 -115 100 -130 11 -16
38 -51 61 -80 37 -47 153 -197 382 -495 48 -62 92 -118 97 -125 6 -6 32 -40
59 -76 84 -110 160 -204 181 -223 31 -27 105 -63 159 -76 87 -21 197 26 241
104 50 92 50 81 50 1115 l0 965 -23 71 c-37 112 -85 158 -211 202 -40 14 -134
16 -746 17 -385 1 -718 1 -740 -1z m1465 -1244 c0 -577 -1 -1050 -3 -1050 -2
0 -21 24 -42 52 -64 84 -1380 1792 -1475 1913 -47 61 -89 116 -93 123 -7 9
156 12 802 12 l811 0 0 -1050z"/>
<path d="M3123 2791 c-85 -22 -140 -83 -170 -191 -17 -61 -18 -131 -18 -1065
0 -1065 -1 -1041 48 -1139 39 -80 116 -129 229 -147 39 -6 359 -9 828 -7 832
3 793 1 883 60 90 58 117 203 61 328 -33 76 -46 94 -268 380 -92 118 -205 265
-251 325 -47 61 -123 160 -171 220 -47 61 -111 144 -143 185 -169 221 -199
261 -250 326 -31 38 -67 85 -81 104 -14 18 -53 70 -88 114 -35 45 -75 97 -90
116 -220 288 -259 332 -326 365 -56 27 -143 39 -193 26z m51 -164 c16 -23 389
-509 830 -1080 441 -571 803 -1042 804 -1047 2 -7 -300 -10 -837 -10 l-841 0
0 1090 c0 600 3 1090 8 1090 4 -1 20 -20 36 -43z"/>
</g>
</svg>
